<mxfile host="app.diagrams.net" modified="2024-07-23T19:45:10.774Z" agent="Mozilla/5.0 (Windows NT 10.0; Win64; x64) AppleWebKit/537.36 (KHTML, like Gecko) Chrome/126.0.0.0 Safari/537.36" etag="790iuEJShu-t4jLl25md" version="24.7.1" type="device">
  <diagram id="2WGy25AUBtk22ILBmXkd" name="Page-1">
    <mxGraphModel dx="875" dy="543" grid="1" gridSize="10" guides="1" tooltips="1" connect="1" arrows="1" fold="1" page="1" pageScale="1" pageWidth="827" pageHeight="1169" math="0" shadow="0">
      <root>
        <mxCell id="0" />
        <mxCell id="1" parent="0" />
        <mxCell id="PJRTHKB8zXowQNIOaXIH-75" value="" style="triangle;whiteSpace=wrap;html=1;rotation=-90;fillColor=none;" vertex="1" parent="1">
          <mxGeometry x="340" y="110" width="180" height="790" as="geometry" />
        </mxCell>
        <mxCell id="PJRTHKB8zXowQNIOaXIH-1" value="" style="triangle;whiteSpace=wrap;html=1;rotation=-90;fillColor=none;" vertex="1" parent="1">
          <mxGeometry x="40" width="120" height="200" as="geometry" />
        </mxCell>
        <mxCell id="L83Ct_4AwCxYPiwyGT1B-1" value="1" style="rounded=0;whiteSpace=wrap;html=1;fillColor=none;strokeColor=#d79b00;strokeWidth=4;fontSize=18;fontStyle=1;fontColor=#000000;" parent="1" vertex="1">
          <mxGeometry x="80" y="60.000000000000114" width="40" height="40" as="geometry" />
        </mxCell>
        <mxCell id="L83Ct_4AwCxYPiwyGT1B-2" value="0" style="rounded=0;whiteSpace=wrap;html=1;fillColor=none;strokeColor=#82b366;strokeWidth=4;fontSize=18;fontStyle=1;fontColor=#000000;" parent="1" vertex="1">
          <mxGeometry x="20" y="110.00000000000011" width="40" height="40" as="geometry" />
        </mxCell>
        <mxCell id="L83Ct_4AwCxYPiwyGT1B-3" value="1" style="rounded=0;whiteSpace=wrap;html=1;fillColor=none;strokeColor=#82b366;strokeWidth=4;fontSize=18;fontStyle=1;fontColor=#000000;" parent="1" vertex="1">
          <mxGeometry x="60" y="110.00000000000011" width="40" height="40" as="geometry" />
        </mxCell>
        <mxCell id="L83Ct_4AwCxYPiwyGT1B-4" value="0" style="rounded=0;whiteSpace=wrap;html=1;fillColor=none;strokeColor=#82b366;strokeWidth=4;fontSize=18;fontStyle=1;fontColor=#000000;" parent="1" vertex="1">
          <mxGeometry x="100" y="110.00000000000011" width="40" height="40" as="geometry" />
        </mxCell>
        <mxCell id="L83Ct_4AwCxYPiwyGT1B-5" value="1" style="rounded=0;whiteSpace=wrap;html=1;fillColor=none;strokeColor=#82b366;strokeWidth=4;fontSize=18;fontStyle=1;fontColor=#000000;" parent="1" vertex="1">
          <mxGeometry x="140" y="110.00000000000011" width="40" height="40" as="geometry" />
        </mxCell>
        <mxCell id="PJRTHKB8zXowQNIOaXIH-2" value="" style="triangle;whiteSpace=wrap;html=1;rotation=-90;fillColor=none;" vertex="1" parent="1">
          <mxGeometry x="260" width="120" height="200" as="geometry" />
        </mxCell>
        <mxCell id="PJRTHKB8zXowQNIOaXIH-3" value="1" style="rounded=0;whiteSpace=wrap;html=1;fillColor=none;strokeColor=#d79b00;strokeWidth=4;fontSize=18;fontStyle=1;fontColor=#000000;" vertex="1" parent="1">
          <mxGeometry x="300" y="60.000000000000114" width="40" height="40" as="geometry" />
        </mxCell>
        <mxCell id="PJRTHKB8zXowQNIOaXIH-4" value="0" style="rounded=0;whiteSpace=wrap;html=1;fillColor=none;strokeColor=#82b366;strokeWidth=4;fontSize=18;fontStyle=1;fontColor=#000000;" vertex="1" parent="1">
          <mxGeometry x="240" y="110.00000000000011" width="40" height="40" as="geometry" />
        </mxCell>
        <mxCell id="PJRTHKB8zXowQNIOaXIH-5" value="0" style="rounded=0;whiteSpace=wrap;html=1;fillColor=none;strokeColor=#82b366;strokeWidth=4;fontSize=18;fontStyle=1;fontColor=#000000;" vertex="1" parent="1">
          <mxGeometry x="280" y="110.00000000000011" width="40" height="40" as="geometry" />
        </mxCell>
        <mxCell id="PJRTHKB8zXowQNIOaXIH-6" value="1" style="rounded=0;whiteSpace=wrap;html=1;fillColor=none;strokeColor=#82b366;strokeWidth=4;fontSize=18;fontStyle=1;fontColor=#000000;" vertex="1" parent="1">
          <mxGeometry x="320" y="110.00000000000011" width="40" height="40" as="geometry" />
        </mxCell>
        <mxCell id="PJRTHKB8zXowQNIOaXIH-7" value="0" style="rounded=0;whiteSpace=wrap;html=1;fillColor=none;strokeColor=#82b366;strokeWidth=4;fontSize=18;fontStyle=1;fontColor=#000000;" vertex="1" parent="1">
          <mxGeometry x="360" y="110.00000000000011" width="40" height="40" as="geometry" />
        </mxCell>
        <mxCell id="PJRTHKB8zXowQNIOaXIH-8" value="" style="triangle;whiteSpace=wrap;html=1;rotation=-90;fillColor=none;" vertex="1" parent="1">
          <mxGeometry x="480" width="120" height="200" as="geometry" />
        </mxCell>
        <mxCell id="PJRTHKB8zXowQNIOaXIH-9" value="1" style="rounded=0;whiteSpace=wrap;html=1;fillColor=none;strokeColor=#d79b00;strokeWidth=4;fontSize=18;fontStyle=1;fontColor=#000000;" vertex="1" parent="1">
          <mxGeometry x="520" y="60.000000000000114" width="40" height="40" as="geometry" />
        </mxCell>
        <mxCell id="PJRTHKB8zXowQNIOaXIH-10" value="1" style="rounded=0;whiteSpace=wrap;html=1;fillColor=none;strokeColor=#82b366;strokeWidth=4;fontSize=18;fontStyle=1;fontColor=#000000;" vertex="1" parent="1">
          <mxGeometry x="460" y="110.00000000000011" width="40" height="40" as="geometry" />
        </mxCell>
        <mxCell id="PJRTHKB8zXowQNIOaXIH-11" value="1" style="rounded=0;whiteSpace=wrap;html=1;fillColor=none;strokeColor=#82b366;strokeWidth=4;fontSize=18;fontStyle=1;fontColor=#000000;" vertex="1" parent="1">
          <mxGeometry x="500" y="110.00000000000011" width="40" height="40" as="geometry" />
        </mxCell>
        <mxCell id="PJRTHKB8zXowQNIOaXIH-12" value="1" style="rounded=0;whiteSpace=wrap;html=1;fillColor=none;strokeColor=#82b366;strokeWidth=4;fontSize=18;fontStyle=1;fontColor=#000000;" vertex="1" parent="1">
          <mxGeometry x="540" y="110.00000000000011" width="40" height="40" as="geometry" />
        </mxCell>
        <mxCell id="PJRTHKB8zXowQNIOaXIH-13" value="1" style="rounded=0;whiteSpace=wrap;html=1;fillColor=none;strokeColor=#82b366;strokeWidth=4;fontSize=18;fontStyle=1;fontColor=#000000;" vertex="1" parent="1">
          <mxGeometry x="580" y="110.00000000000011" width="40" height="40" as="geometry" />
        </mxCell>
        <mxCell id="PJRTHKB8zXowQNIOaXIH-14" value="" style="triangle;whiteSpace=wrap;html=1;rotation=-90;fillColor=none;" vertex="1" parent="1">
          <mxGeometry x="700" width="120" height="200" as="geometry" />
        </mxCell>
        <mxCell id="PJRTHKB8zXowQNIOaXIH-15" value="0" style="rounded=0;whiteSpace=wrap;html=1;fillColor=none;strokeColor=#d79b00;strokeWidth=4;fontSize=18;fontStyle=1;fontColor=#000000;" vertex="1" parent="1">
          <mxGeometry x="740" y="60.000000000000114" width="40" height="40" as="geometry" />
        </mxCell>
        <mxCell id="PJRTHKB8zXowQNIOaXIH-16" value="0" style="rounded=0;whiteSpace=wrap;html=1;fillColor=none;strokeColor=#82b366;strokeWidth=4;fontSize=18;fontStyle=1;fontColor=#000000;" vertex="1" parent="1">
          <mxGeometry x="680" y="110.00000000000011" width="40" height="40" as="geometry" />
        </mxCell>
        <mxCell id="PJRTHKB8zXowQNIOaXIH-17" value="0" style="rounded=0;whiteSpace=wrap;html=1;fillColor=none;strokeColor=#82b366;strokeWidth=4;fontSize=18;fontStyle=1;fontColor=#000000;" vertex="1" parent="1">
          <mxGeometry x="720" y="110.00000000000011" width="40" height="40" as="geometry" />
        </mxCell>
        <mxCell id="PJRTHKB8zXowQNIOaXIH-18" value="0" style="rounded=0;whiteSpace=wrap;html=1;fillColor=none;strokeColor=#82b366;strokeWidth=4;fontSize=18;fontStyle=1;fontColor=#000000;" vertex="1" parent="1">
          <mxGeometry x="760" y="110.00000000000011" width="40" height="40" as="geometry" />
        </mxCell>
        <mxCell id="PJRTHKB8zXowQNIOaXIH-19" value="0" style="rounded=0;whiteSpace=wrap;html=1;fillColor=none;strokeColor=#82b366;strokeWidth=4;fontSize=18;fontStyle=1;fontColor=#000000;" vertex="1" parent="1">
          <mxGeometry x="800" y="110.00000000000011" width="40" height="40" as="geometry" />
        </mxCell>
        <mxCell id="PJRTHKB8zXowQNIOaXIH-20" value="" style="shape=flexArrow;endArrow=classic;html=1;rounded=0;fillColor=none;" edge="1" parent="1">
          <mxGeometry width="50" height="50" relative="1" as="geometry">
            <mxPoint x="430" y="170" as="sourcePoint" />
            <mxPoint x="430" y="220" as="targetPoint" />
          </mxGeometry>
        </mxCell>
        <mxCell id="PJRTHKB8zXowQNIOaXIH-21" value="0" style="rounded=0;whiteSpace=wrap;html=1;fillColor=none;strokeColor=#82b366;strokeWidth=4;fontSize=18;fontStyle=1;fontColor=#000000;" vertex="1" parent="1">
          <mxGeometry x="65" y="300.0000000000001" width="40" height="40" as="geometry" />
        </mxCell>
        <mxCell id="PJRTHKB8zXowQNIOaXIH-22" value="1" style="rounded=0;whiteSpace=wrap;html=1;fillColor=none;strokeColor=#82b366;strokeWidth=4;fontSize=18;fontStyle=1;fontColor=#000000;" vertex="1" parent="1">
          <mxGeometry x="105" y="300.0000000000001" width="40" height="40" as="geometry" />
        </mxCell>
        <mxCell id="PJRTHKB8zXowQNIOaXIH-23" value="0" style="rounded=0;whiteSpace=wrap;html=1;fillColor=none;strokeColor=#82b366;strokeWidth=4;fontSize=18;fontStyle=1;fontColor=#000000;" vertex="1" parent="1">
          <mxGeometry x="145" y="300.0000000000001" width="40" height="40" as="geometry" />
        </mxCell>
        <mxCell id="PJRTHKB8zXowQNIOaXIH-24" value="1" style="rounded=0;whiteSpace=wrap;html=1;fillColor=none;strokeColor=#82b366;strokeWidth=4;fontSize=18;fontStyle=1;fontColor=#000000;" vertex="1" parent="1">
          <mxGeometry x="185" y="300.0000000000001" width="40" height="40" as="geometry" />
        </mxCell>
        <mxCell id="PJRTHKB8zXowQNIOaXIH-25" value="0" style="rounded=0;whiteSpace=wrap;html=1;fillColor=none;strokeColor=#82b366;strokeWidth=4;fontSize=18;fontStyle=1;fontColor=#000000;" vertex="1" parent="1">
          <mxGeometry x="255" y="300.0000000000001" width="40" height="40" as="geometry" />
        </mxCell>
        <mxCell id="PJRTHKB8zXowQNIOaXIH-26" value="0" style="rounded=0;whiteSpace=wrap;html=1;fillColor=none;strokeColor=#82b366;strokeWidth=4;fontSize=18;fontStyle=1;fontColor=#000000;" vertex="1" parent="1">
          <mxGeometry x="295" y="300.0000000000001" width="40" height="40" as="geometry" />
        </mxCell>
        <mxCell id="PJRTHKB8zXowQNIOaXIH-27" value="1" style="rounded=0;whiteSpace=wrap;html=1;fillColor=none;strokeColor=#82b366;strokeWidth=4;fontSize=18;fontStyle=1;fontColor=#000000;" vertex="1" parent="1">
          <mxGeometry x="335" y="300.0000000000001" width="40" height="40" as="geometry" />
        </mxCell>
        <mxCell id="PJRTHKB8zXowQNIOaXIH-28" value="0" style="rounded=0;whiteSpace=wrap;html=1;fillColor=none;strokeColor=#82b366;strokeWidth=4;fontSize=18;fontStyle=1;fontColor=#000000;" vertex="1" parent="1">
          <mxGeometry x="375" y="300.0000000000001" width="40" height="40" as="geometry" />
        </mxCell>
        <mxCell id="PJRTHKB8zXowQNIOaXIH-29" value="1" style="rounded=0;whiteSpace=wrap;html=1;fillColor=none;strokeColor=#82b366;strokeWidth=4;fontSize=18;fontStyle=1;fontColor=#000000;" vertex="1" parent="1">
          <mxGeometry x="445" y="300.0000000000001" width="40" height="40" as="geometry" />
        </mxCell>
        <mxCell id="PJRTHKB8zXowQNIOaXIH-30" value="1" style="rounded=0;whiteSpace=wrap;html=1;fillColor=none;strokeColor=#82b366;strokeWidth=4;fontSize=18;fontStyle=1;fontColor=#000000;" vertex="1" parent="1">
          <mxGeometry x="485" y="300.0000000000001" width="40" height="40" as="geometry" />
        </mxCell>
        <mxCell id="PJRTHKB8zXowQNIOaXIH-31" value="1" style="rounded=0;whiteSpace=wrap;html=1;fillColor=none;strokeColor=#82b366;strokeWidth=4;fontSize=18;fontStyle=1;fontColor=#000000;" vertex="1" parent="1">
          <mxGeometry x="525" y="300.0000000000001" width="40" height="40" as="geometry" />
        </mxCell>
        <mxCell id="PJRTHKB8zXowQNIOaXIH-32" value="1" style="rounded=0;whiteSpace=wrap;html=1;fillColor=none;strokeColor=#82b366;strokeWidth=4;fontSize=18;fontStyle=1;fontColor=#000000;" vertex="1" parent="1">
          <mxGeometry x="565" y="300.0000000000001" width="40" height="40" as="geometry" />
        </mxCell>
        <mxCell id="PJRTHKB8zXowQNIOaXIH-33" value="0" style="rounded=0;whiteSpace=wrap;html=1;fillColor=none;strokeColor=#82b366;strokeWidth=4;fontSize=18;fontStyle=1;fontColor=#000000;" vertex="1" parent="1">
          <mxGeometry x="635" y="300.0000000000001" width="40" height="40" as="geometry" />
        </mxCell>
        <mxCell id="PJRTHKB8zXowQNIOaXIH-34" value="0" style="rounded=0;whiteSpace=wrap;html=1;fillColor=none;strokeColor=#82b366;strokeWidth=4;fontSize=18;fontStyle=1;fontColor=#000000;" vertex="1" parent="1">
          <mxGeometry x="675" y="300.0000000000001" width="40" height="40" as="geometry" />
        </mxCell>
        <mxCell id="PJRTHKB8zXowQNIOaXIH-35" value="0" style="rounded=0;whiteSpace=wrap;html=1;fillColor=none;strokeColor=#82b366;strokeWidth=4;fontSize=18;fontStyle=1;fontColor=#000000;" vertex="1" parent="1">
          <mxGeometry x="715" y="300.0000000000001" width="40" height="40" as="geometry" />
        </mxCell>
        <mxCell id="PJRTHKB8zXowQNIOaXIH-36" value="0" style="rounded=0;whiteSpace=wrap;html=1;fillColor=none;strokeColor=#82b366;strokeWidth=4;fontSize=18;fontStyle=1;fontColor=#000000;" vertex="1" parent="1">
          <mxGeometry x="755" y="300.0000000000001" width="40" height="40" as="geometry" />
        </mxCell>
        <mxCell id="PJRTHKB8zXowQNIOaXIH-37" value="1" style="rounded=0;whiteSpace=wrap;html=1;fillColor=none;strokeColor=#d79b00;strokeWidth=4;fontSize=18;fontStyle=1;fontColor=#000000;" vertex="1" parent="1">
          <mxGeometry x="305" y="230.0000000000001" width="40" height="40" as="geometry" />
        </mxCell>
        <mxCell id="PJRTHKB8zXowQNIOaXIH-38" value="1" style="rounded=0;whiteSpace=wrap;html=1;fillColor=none;strokeColor=#d79b00;strokeWidth=4;fontSize=18;fontStyle=1;fontColor=#000000;" vertex="1" parent="1">
          <mxGeometry x="375" y="230.0000000000001" width="40" height="40" as="geometry" />
        </mxCell>
        <mxCell id="PJRTHKB8zXowQNIOaXIH-39" value="1" style="rounded=0;whiteSpace=wrap;html=1;fillColor=none;strokeColor=#d79b00;strokeWidth=4;fontSize=18;fontStyle=1;fontColor=#000000;" vertex="1" parent="1">
          <mxGeometry x="445" y="230.0000000000001" width="40" height="40" as="geometry" />
        </mxCell>
        <mxCell id="PJRTHKB8zXowQNIOaXIH-40" value="0" style="rounded=0;whiteSpace=wrap;html=1;fillColor=none;strokeColor=#d79b00;strokeWidth=4;fontSize=18;fontStyle=1;fontColor=#000000;" vertex="1" parent="1">
          <mxGeometry x="515" y="230.0000000000001" width="40" height="40" as="geometry" />
        </mxCell>
        <mxCell id="PJRTHKB8zXowQNIOaXIH-41" value="&lt;font style=&quot;font-size: 32px;&quot;&gt;+&lt;/font&gt;" style="text;html=1;align=center;verticalAlign=middle;whiteSpace=wrap;rounded=0;fillColor=none;" vertex="1" parent="1">
          <mxGeometry x="225" y="305" width="30" height="30" as="geometry" />
        </mxCell>
        <mxCell id="PJRTHKB8zXowQNIOaXIH-42" value="&lt;font style=&quot;font-size: 32px;&quot;&gt;+&lt;/font&gt;" style="text;html=1;align=center;verticalAlign=middle;whiteSpace=wrap;rounded=0;fillColor=none;" vertex="1" parent="1">
          <mxGeometry x="415" y="305" width="30" height="30" as="geometry" />
        </mxCell>
        <mxCell id="PJRTHKB8zXowQNIOaXIH-43" value="&lt;font style=&quot;font-size: 32px;&quot;&gt;+&lt;/font&gt;" style="text;html=1;align=center;verticalAlign=middle;whiteSpace=wrap;rounded=0;fillColor=none;" vertex="1" parent="1">
          <mxGeometry x="605" y="305" width="30" height="30" as="geometry" />
        </mxCell>
        <mxCell id="PJRTHKB8zXowQNIOaXIH-44" value="&lt;font style=&quot;font-size: 32px;&quot;&gt;+&lt;/font&gt;" style="text;html=1;align=center;verticalAlign=middle;whiteSpace=wrap;rounded=0;fillColor=none;" vertex="1" parent="1">
          <mxGeometry x="345" y="235" width="30" height="30" as="geometry" />
        </mxCell>
        <mxCell id="PJRTHKB8zXowQNIOaXIH-45" value="&lt;font style=&quot;font-size: 32px;&quot;&gt;+&lt;/font&gt;" style="text;html=1;align=center;verticalAlign=middle;whiteSpace=wrap;rounded=0;fillColor=none;" vertex="1" parent="1">
          <mxGeometry x="415" y="235" width="30" height="30" as="geometry" />
        </mxCell>
        <mxCell id="PJRTHKB8zXowQNIOaXIH-46" value="&lt;font style=&quot;font-size: 32px;&quot;&gt;+&lt;/font&gt;" style="text;html=1;align=center;verticalAlign=middle;whiteSpace=wrap;rounded=0;fillColor=none;" vertex="1" parent="1">
          <mxGeometry x="485" y="235" width="30" height="30" as="geometry" />
        </mxCell>
        <mxCell id="PJRTHKB8zXowQNIOaXIH-47" value="" style="shape=flexArrow;endArrow=classic;html=1;rounded=0;fillColor=none;" edge="1" parent="1">
          <mxGeometry width="50" height="50" relative="1" as="geometry">
            <mxPoint x="429.58" y="350" as="sourcePoint" />
            <mxPoint x="429.58" y="400" as="targetPoint" />
          </mxGeometry>
        </mxCell>
        <mxCell id="PJRTHKB8zXowQNIOaXIH-48" value="0" style="rounded=0;whiteSpace=wrap;html=1;fillColor=none;strokeColor=#82b366;strokeWidth=4;fontSize=18;fontStyle=1;fontColor=#000000;" vertex="1" parent="1">
          <mxGeometry x="110" y="550.0000000000001" width="40" height="40" as="geometry" />
        </mxCell>
        <mxCell id="PJRTHKB8zXowQNIOaXIH-49" value="1" style="rounded=0;whiteSpace=wrap;html=1;fillColor=none;strokeColor=#82b366;strokeWidth=4;fontSize=18;fontStyle=1;fontColor=#000000;" vertex="1" parent="1">
          <mxGeometry x="150" y="550.0000000000001" width="40" height="40" as="geometry" />
        </mxCell>
        <mxCell id="PJRTHKB8zXowQNIOaXIH-50" value="0" style="rounded=0;whiteSpace=wrap;html=1;fillColor=none;strokeColor=#82b366;strokeWidth=4;fontSize=18;fontStyle=1;fontColor=#000000;" vertex="1" parent="1">
          <mxGeometry x="190" y="550.0000000000001" width="40" height="40" as="geometry" />
        </mxCell>
        <mxCell id="PJRTHKB8zXowQNIOaXIH-51" value="1" style="rounded=0;whiteSpace=wrap;html=1;fillColor=none;strokeColor=#82b366;strokeWidth=4;fontSize=18;fontStyle=1;fontColor=#000000;" vertex="1" parent="1">
          <mxGeometry x="230" y="550.0000000000001" width="40" height="40" as="geometry" />
        </mxCell>
        <mxCell id="PJRTHKB8zXowQNIOaXIH-52" value="0" style="rounded=0;whiteSpace=wrap;html=1;fillColor=none;strokeColor=#82b366;strokeWidth=4;fontSize=18;fontStyle=1;fontColor=#000000;" vertex="1" parent="1">
          <mxGeometry x="270" y="550.0000000000001" width="40" height="40" as="geometry" />
        </mxCell>
        <mxCell id="PJRTHKB8zXowQNIOaXIH-53" value="0" style="rounded=0;whiteSpace=wrap;html=1;fillColor=none;strokeColor=#82b366;strokeWidth=4;fontSize=18;fontStyle=1;fontColor=#000000;" vertex="1" parent="1">
          <mxGeometry x="310" y="550.0000000000001" width="40" height="40" as="geometry" />
        </mxCell>
        <mxCell id="PJRTHKB8zXowQNIOaXIH-54" value="1" style="rounded=0;whiteSpace=wrap;html=1;fillColor=none;strokeColor=#82b366;strokeWidth=4;fontSize=18;fontStyle=1;fontColor=#000000;" vertex="1" parent="1">
          <mxGeometry x="350" y="550.0000000000001" width="40" height="40" as="geometry" />
        </mxCell>
        <mxCell id="PJRTHKB8zXowQNIOaXIH-55" value="0" style="rounded=0;whiteSpace=wrap;html=1;fillColor=none;strokeColor=#82b366;strokeWidth=4;fontSize=18;fontStyle=1;fontColor=#000000;" vertex="1" parent="1">
          <mxGeometry x="390" y="550.0000000000001" width="40" height="40" as="geometry" />
        </mxCell>
        <mxCell id="PJRTHKB8zXowQNIOaXIH-56" value="1" style="rounded=0;whiteSpace=wrap;html=1;fillColor=none;strokeColor=#82b366;strokeWidth=4;fontSize=18;fontStyle=1;fontColor=#000000;" vertex="1" parent="1">
          <mxGeometry x="430" y="550.0000000000001" width="40" height="40" as="geometry" />
        </mxCell>
        <mxCell id="PJRTHKB8zXowQNIOaXIH-57" value="1" style="rounded=0;whiteSpace=wrap;html=1;fillColor=none;strokeColor=#82b366;strokeWidth=4;fontSize=18;fontStyle=1;fontColor=#000000;" vertex="1" parent="1">
          <mxGeometry x="470" y="550.0000000000001" width="40" height="40" as="geometry" />
        </mxCell>
        <mxCell id="PJRTHKB8zXowQNIOaXIH-58" value="1" style="rounded=0;whiteSpace=wrap;html=1;fillColor=none;strokeColor=#82b366;strokeWidth=4;fontSize=18;fontStyle=1;fontColor=#000000;" vertex="1" parent="1">
          <mxGeometry x="510" y="550.0000000000001" width="40" height="40" as="geometry" />
        </mxCell>
        <mxCell id="PJRTHKB8zXowQNIOaXIH-59" value="1" style="rounded=0;whiteSpace=wrap;html=1;fillColor=none;strokeColor=#82b366;strokeWidth=4;fontSize=18;fontStyle=1;fontColor=#000000;" vertex="1" parent="1">
          <mxGeometry x="550" y="550.0000000000001" width="40" height="40" as="geometry" />
        </mxCell>
        <mxCell id="PJRTHKB8zXowQNIOaXIH-60" value="0" style="rounded=0;whiteSpace=wrap;html=1;fillColor=none;strokeColor=#82b366;strokeWidth=4;fontSize=18;fontStyle=1;fontColor=#000000;" vertex="1" parent="1">
          <mxGeometry x="590" y="550.0000000000001" width="40" height="40" as="geometry" />
        </mxCell>
        <mxCell id="PJRTHKB8zXowQNIOaXIH-61" value="0" style="rounded=0;whiteSpace=wrap;html=1;fillColor=none;strokeColor=#82b366;strokeWidth=4;fontSize=18;fontStyle=1;fontColor=#000000;" vertex="1" parent="1">
          <mxGeometry x="630" y="550.0000000000001" width="40" height="40" as="geometry" />
        </mxCell>
        <mxCell id="PJRTHKB8zXowQNIOaXIH-62" value="0" style="rounded=0;whiteSpace=wrap;html=1;fillColor=none;strokeColor=#82b366;strokeWidth=4;fontSize=18;fontStyle=1;fontColor=#000000;" vertex="1" parent="1">
          <mxGeometry x="670" y="550.0000000000001" width="40" height="40" as="geometry" />
        </mxCell>
        <mxCell id="PJRTHKB8zXowQNIOaXIH-63" value="0" style="rounded=0;whiteSpace=wrap;html=1;fillColor=none;strokeColor=#82b366;strokeWidth=4;fontSize=18;fontStyle=1;fontColor=#000000;" vertex="1" parent="1">
          <mxGeometry x="710" y="550.0000000000001" width="40" height="40" as="geometry" />
        </mxCell>
        <mxCell id="PJRTHKB8zXowQNIOaXIH-64" value="1" style="rounded=0;whiteSpace=wrap;html=1;fillColor=none;strokeColor=#d79b00;strokeWidth=4;fontSize=18;fontStyle=1;fontColor=#000000;" vertex="1" parent="1">
          <mxGeometry x="350" y="490" width="40" height="40" as="geometry" />
        </mxCell>
        <mxCell id="PJRTHKB8zXowQNIOaXIH-65" value="1" style="rounded=0;whiteSpace=wrap;html=1;fillColor=none;strokeColor=#d79b00;strokeWidth=4;fontSize=18;fontStyle=1;fontColor=#000000;" vertex="1" parent="1">
          <mxGeometry x="390" y="490.0000000000001" width="40" height="40" as="geometry" />
        </mxCell>
        <mxCell id="PJRTHKB8zXowQNIOaXIH-66" value="1" style="rounded=0;whiteSpace=wrap;html=1;fillColor=none;strokeColor=#d79b00;strokeWidth=4;fontSize=18;fontStyle=1;fontColor=#000000;" vertex="1" parent="1">
          <mxGeometry x="430" y="490.0000000000001" width="40" height="40" as="geometry" />
        </mxCell>
        <mxCell id="PJRTHKB8zXowQNIOaXIH-67" value="0" style="rounded=0;whiteSpace=wrap;html=1;fillColor=none;strokeColor=#d79b00;strokeWidth=4;fontSize=18;fontStyle=1;fontColor=#000000;" vertex="1" parent="1">
          <mxGeometry x="470" y="490.0000000000001" width="40" height="40" as="geometry" />
        </mxCell>
        <mxCell id="PJRTHKB8zXowQNIOaXIH-76" value="1" style="rounded=0;whiteSpace=wrap;html=1;fillColor=none;strokeColor=#6c8ebf;strokeWidth=4;fontSize=18;fontStyle=1;" vertex="1" parent="1">
          <mxGeometry x="410" y="430.0000000000001" width="40" height="40" as="geometry" />
        </mxCell>
      </root>
    </mxGraphModel>
  </diagram>
</mxfile>
